<svg width="12" height="12" viewBox="0 0 12 12" fill="none" xmlns="http://www.w3.org/2000/svg">
<mask id="path-1-inside-1_5_2339" fill="white">
<path d="M5.58187 1.01466C5.71632 0.742277 5.78355 0.606087 5.87481 0.562574C5.95421 0.524715 6.04646 0.524715 6.12586 0.562574C6.21712 0.606087 6.28435 0.742277 6.4188 1.01466L7.69436 3.59881C7.73405 3.67922 7.7539 3.71943 7.7829 3.75064C7.80858 3.77828 7.83938 3.80068 7.87359 3.81659C7.91223 3.83455 7.9566 3.84104 8.04533 3.85401L10.8986 4.27105C11.199 4.31497 11.3493 4.33693 11.4188 4.41031C11.4793 4.47416 11.5077 4.5619 11.4962 4.64909C11.483 4.74931 11.3742 4.85525 11.1567 5.06711L9.09284 7.0773C9.0285 7.13997 8.99633 7.1713 8.97557 7.20858C8.9572 7.24158 8.94541 7.27785 8.94086 7.31535C8.93572 7.35771 8.94331 7.40197 8.95849 7.49049L9.44547 10.3298C9.49683 10.6293 9.52251 10.779 9.47425 10.8678C9.43226 10.9452 9.35761 10.9994 9.27111 11.0154C9.17169 11.0338 9.03723 10.9631 8.76831 10.8217L6.21755 9.48029C6.13807 9.4385 6.09833 9.4176 6.05647 9.40939C6.0194 9.40212 5.98127 9.40212 5.9442 9.40939C5.90234 9.4176 5.8626 9.4385 5.78312 9.48029L3.23236 10.8217C2.96344 10.9631 2.82898 11.0338 2.72956 11.0154C2.64306 10.9994 2.56841 10.9452 2.52642 10.8678C2.47816 10.779 2.50384 10.6293 2.5552 10.3298L3.04218 7.49049C3.05736 7.40197 3.06495 7.35771 3.05981 7.31535C3.05526 7.27785 3.04347 7.24158 3.0251 7.20858C3.00434 7.1713 2.97217 7.13996 2.90783 7.0773L0.843985 5.06711C0.626462 4.85525 0.517701 4.74931 0.504466 4.64909C0.492951 4.5619 0.521398 4.47416 0.581888 4.41031C0.651413 4.33693 0.801642 4.31497 1.1021 4.27105L3.95534 3.85401C4.04407 3.84104 4.08844 3.83455 4.12708 3.81659C4.16129 3.80068 4.19209 3.77828 4.21777 3.75064C4.24677 3.71943 4.26662 3.67922 4.30631 3.59881L5.58187 1.01466Z"/>
</mask>
<path d="M3.95534 3.85401L4.09997 4.84349H4.09997L3.95534 3.85401ZM4.12708 3.81659L3.70541 2.90983L4.12708 3.81659ZM4.30631 3.59881L3.4096 3.15618L4.30631 3.59881ZM4.21777 3.75064L4.95037 4.4313L4.21777 3.75064ZM0.843985 5.06711L0.146252 5.78347H0.146252L0.843985 5.06711ZM0.504466 4.64909L1.49586 4.51817L0.504466 4.64909ZM1.1021 4.27105L0.957473 3.28157H0.957473L1.1021 4.27105ZM0.581888 4.41031L-0.144055 3.72256L0.581888 4.41031ZM3.04218 7.49049L2.05657 7.32145L3.04218 7.49049ZM3.05981 7.31535L4.05254 7.19498L3.05981 7.31535ZM2.90783 7.0773L3.60557 6.36094L2.90783 7.0773ZM3.0251 7.20858L3.89879 6.72211L3.0251 7.20858ZM3.23236 10.8217L3.69782 11.7068L3.23236 10.8217ZM2.72956 11.0154L2.54729 11.9987L2.72956 11.0154ZM2.5552 10.3298L3.54081 10.4988L2.5552 10.3298ZM2.52642 10.8678L1.64768 11.3452L2.52642 10.8678ZM6.21755 9.48029L5.75209 10.3654L6.21755 9.48029ZM6.05647 9.40939L6.24892 8.42808L6.05647 9.40939ZM5.78312 9.48029L5.31767 8.59522L5.78312 9.48029ZM5.9442 9.40939L6.13665 10.3907L5.9442 9.40939ZM9.44547 10.3298L10.4311 10.1607L9.44547 10.3298ZM9.47425 10.8678L8.59551 10.3905L9.47425 10.8678ZM8.76831 10.8217L9.23376 9.93664L8.76831 10.8217ZM9.27111 11.0154L9.08884 10.0322L9.27111 11.0154ZM9.09284 7.0773L9.79057 7.79366L9.09284 7.0773ZM8.97557 7.20858L9.84927 7.69504L8.97557 7.20858ZM8.95849 7.49049L7.97289 7.65953L8.95849 7.49049ZM8.94086 7.31535L7.94813 7.19498L8.94086 7.31535ZM10.8986 4.27105L11.0432 3.28157L10.8986 4.27105ZM11.4188 4.41031L12.1447 3.72256L11.4188 4.41031ZM11.1567 5.06711L10.459 4.35075L11.1567 5.06711ZM11.4962 4.64909L10.5048 4.51817L11.4962 4.64909ZM7.69436 3.59881L8.59107 3.15618V3.15618L7.69436 3.59881ZM7.7829 3.75064L7.0503 4.4313L7.7829 3.75064ZM8.04533 3.85401L7.9007 4.84349L8.04533 3.85401ZM7.87359 3.81659L8.29526 2.90983L7.87359 3.81659ZM6.4188 1.01466L5.52209 1.45728V1.45728L6.4188 1.01466ZM6.12586 0.562574L6.55624 -0.340076L6.12586 0.562574ZM5.58187 1.01466L6.47858 1.45728L5.58187 1.01466ZM5.87481 0.562574L5.44443 -0.340076L5.87481 0.562574ZM5.52209 1.45728L6.79765 4.04143L8.59107 3.15618L7.31551 0.572034L5.52209 1.45728ZM7.9007 4.84349L10.7539 5.26054L11.0432 3.28157L8.18996 2.86452L7.9007 4.84349ZM10.459 4.35075L8.3951 6.36094L9.79057 7.79366L11.8544 5.78347L10.459 4.35075ZM7.97289 7.65953L8.45986 10.4988L10.4311 10.1607L9.9441 7.32145L7.97289 7.65953ZM9.23376 9.93664L6.683 8.59522L5.75209 10.3654L8.30286 11.7068L9.23376 9.93664ZM5.31767 8.59522L2.76691 9.93664L3.69782 11.7068L6.24858 10.3654L5.31767 8.59522ZM3.54081 10.4988L4.02778 7.65953L2.05657 7.32145L1.56959 10.1607L3.54081 10.4988ZM3.60557 6.36094L1.54172 4.35075L0.146252 5.78347L2.2101 7.79366L3.60557 6.36094ZM1.24673 5.26054L4.09997 4.84349L3.81071 2.86452L0.957473 3.28157L1.24673 5.26054ZM5.20302 4.04143L6.47858 1.45728L4.68516 0.572034L3.4096 3.15618L5.20302 4.04143ZM4.09997 4.84349C4.12831 4.83935 4.3464 4.81743 4.54874 4.72334L3.70541 2.90983C3.7822 2.87413 3.84395 2.86063 3.86089 2.85719C3.86806 2.85574 3.86931 2.85571 3.85876 2.85737C3.848 2.85906 3.83444 2.86105 3.81071 2.86452L4.09997 4.84349ZM3.4096 3.15618C3.39899 3.17769 3.39291 3.18997 3.38799 3.19968C3.38315 3.20921 3.38357 3.20803 3.38716 3.20165C3.39566 3.18661 3.42753 3.13202 3.48517 3.06998L4.95037 4.4313C5.10226 4.26782 5.19034 4.06711 5.20302 4.04143L3.4096 3.15618ZM4.54874 4.72334C4.70024 4.65289 4.83664 4.55371 4.95037 4.4313L3.48517 3.06998C3.54753 3.00286 3.62233 2.94847 3.70541 2.90983L4.54874 4.72334ZM1.54172 4.35075C1.48555 4.29604 1.44455 4.25607 1.4107 4.22197C1.37634 4.18737 1.36188 4.1713 1.35746 4.16613C1.35178 4.15949 1.37475 4.18475 1.40299 4.23469C1.43357 4.28876 1.47838 4.38582 1.49586 4.51817L-0.486927 4.78002C-0.440463 5.13186 -0.244404 5.37029 -0.162228 5.46634C-0.0694891 5.57473 0.0517738 5.69145 0.146252 5.78347L1.54172 4.35075ZM0.957473 3.28157C0.826972 3.30064 0.660293 3.32399 0.521594 3.35735C0.398694 3.3869 0.100026 3.46492 -0.144055 3.72256L1.30783 5.09807C1.21602 5.19498 1.12278 5.24727 1.06629 5.27312C1.01412 5.29698 0.9807 5.30396 0.989195 5.30192C0.995806 5.30033 1.01694 5.2958 1.06507 5.28794C1.11249 5.28019 1.16914 5.27188 1.24673 5.26054L0.957473 3.28157ZM1.49586 4.51817C1.52382 4.72993 1.45474 4.943 1.30783 5.09807L-0.144055 3.72256C-0.411939 4.00532 -0.537922 4.39386 -0.486927 4.78002L1.49586 4.51817ZM4.02778 7.65953C4.03263 7.63127 4.07944 7.41681 4.05254 7.19498L2.06708 7.43573C2.05688 7.35154 2.06318 7.28855 2.06516 7.27138C2.066 7.2641 2.06636 7.2629 2.06466 7.27347C2.06294 7.28424 2.06063 7.29777 2.05657 7.32145L4.02778 7.65953ZM2.2101 7.79366C2.22731 7.81042 2.23713 7.82 2.24486 7.8277C2.25245 7.83525 2.25145 7.83449 2.24649 7.8291C2.23479 7.81637 2.19265 7.76914 2.1514 7.69504L3.89879 6.72211C3.79009 6.52688 3.62611 6.38095 3.60557 6.36094L2.2101 7.79366ZM4.05254 7.19498C4.0324 7.02889 3.98019 6.86829 3.89879 6.72211L2.1514 7.69504C2.10676 7.61488 2.07813 7.52681 2.06708 7.43573L4.05254 7.19498ZM2.76691 9.93664C2.69747 9.97316 2.64674 9.9998 2.60381 10.0215C2.56024 10.0435 2.54046 10.0522 2.53416 10.0549C2.52606 10.0582 2.55718 10.0442 2.6134 10.0328C2.67428 10.0204 2.78049 10.0078 2.91183 10.0322L2.54729 11.9987C2.89639 12.0634 3.1839 11.9506 3.30064 11.9022C3.43244 11.8475 3.581 11.7682 3.69782 11.7068L2.76691 9.93664ZM1.56959 10.1607C1.54728 10.2908 1.51784 10.4566 1.50657 10.5989C1.4966 10.7249 1.47822 11.0332 1.64768 11.3452L3.40516 10.3905C3.46892 10.5079 3.48976 10.6128 3.49683 10.6746C3.50336 10.7315 3.49964 10.7655 3.50033 10.7567C3.50087 10.7499 3.50312 10.7284 3.51056 10.6802C3.51789 10.6326 3.52755 10.5762 3.54081 10.4988L1.56959 10.1607ZM2.91183 10.0322C3.12191 10.0711 3.30318 10.2028 3.40516 10.3905L1.64768 11.3452C1.83364 11.6875 2.16421 11.9277 2.54729 11.9987L2.91183 10.0322ZM6.683 8.59522C6.65763 8.58188 6.46817 8.47108 6.24892 8.42808L5.86402 10.3907C5.78081 10.3744 5.72287 10.3489 5.70714 10.3417C5.70048 10.3387 5.69945 10.338 5.70898 10.3428C5.71868 10.3478 5.73084 10.3542 5.75209 10.3654L6.683 8.59522ZM6.24858 10.3654C6.26983 10.3542 6.28199 10.3478 6.29169 10.3428C6.30122 10.338 6.30019 10.3387 6.29353 10.3417C6.2778 10.3489 6.21986 10.3744 6.13665 10.3907L5.75175 8.42808C5.5325 8.47108 5.34305 8.58188 5.31767 8.59522L6.24858 10.3654ZM6.24892 8.42808C6.08476 8.39589 5.91591 8.39589 5.75175 8.42808L6.13665 10.3907C6.04663 10.4084 5.95404 10.4084 5.86402 10.3907L6.24892 8.42808ZM8.45986 10.4988C8.47312 10.5762 8.48278 10.6326 8.49011 10.6802C8.49755 10.7284 8.4998 10.7499 8.50034 10.7567C8.50103 10.7655 8.49731 10.7315 8.50384 10.6746C8.51091 10.6128 8.53175 10.5079 8.59551 10.3905L10.353 11.3451C10.5225 11.0332 10.5041 10.7249 10.4941 10.5989C10.4828 10.4566 10.4534 10.2908 10.4311 10.1607L8.45986 10.4988ZM8.30286 11.7068C8.41967 11.7682 8.56823 11.8475 8.70003 11.9022C8.81677 11.9506 9.10429 12.0634 9.45338 11.9987L9.08884 10.0322C9.22018 10.0078 9.32639 10.0204 9.38727 10.0328C9.44349 10.0442 9.47461 10.0582 9.46651 10.0549C9.46021 10.0522 9.44043 10.0435 9.39686 10.0215C9.35393 9.9998 9.3032 9.97316 9.23376 9.93664L8.30286 11.7068ZM8.59551 10.3905C8.69749 10.2028 8.87876 10.0711 9.08884 10.0322L9.45338 11.9987C9.83647 11.9277 10.167 11.6875 10.353 11.3451L8.59551 10.3905ZM8.3951 6.36094C8.37457 6.38095 8.21058 6.52687 8.10188 6.72211L9.84927 7.69504C9.80802 7.76914 9.76587 7.81637 9.75417 7.8291C9.74922 7.83449 9.74822 7.83525 9.75581 7.8277C9.76354 7.82001 9.77336 7.81042 9.79057 7.79366L8.3951 6.36094ZM9.9441 7.32145C9.94004 7.29777 9.93773 7.28424 9.93601 7.27347C9.93431 7.2629 9.93467 7.26411 9.93551 7.27138C9.93749 7.28856 9.9438 7.35154 9.93359 7.43573L7.94813 7.19498C7.92123 7.41681 7.96804 7.63127 7.97289 7.65953L9.9441 7.32145ZM8.10188 6.72211C8.02048 6.86829 7.96827 7.02889 7.94813 7.19498L9.93359 7.43573C9.92254 7.52681 9.89391 7.61488 9.84927 7.69504L8.10188 6.72211ZM10.7539 5.26054C10.8315 5.27188 10.8882 5.28019 10.9356 5.28794C10.9837 5.2958 11.0049 5.30033 11.0115 5.30192C11.02 5.30396 10.9865 5.29698 10.9344 5.27312C10.8779 5.24727 10.7847 5.19498 10.6928 5.09807L12.1447 3.72256C11.9006 3.46492 11.602 3.3869 11.4791 3.35735C11.3404 3.32399 11.1737 3.30064 11.0432 3.28157L10.7539 5.26054ZM11.8544 5.78347C11.9489 5.69145 12.0702 5.57473 12.1629 5.46634C12.2451 5.37029 12.4411 5.13186 12.4876 4.78002L10.5048 4.51817C10.5223 4.38582 10.5671 4.28876 10.5977 4.23469C10.6259 4.18475 10.6489 4.15949 10.6432 4.16613C10.6388 4.1713 10.6243 4.18737 10.59 4.22197C10.5561 4.25607 10.5151 4.29604 10.459 4.35075L11.8544 5.78347ZM10.6928 5.09807C10.5459 4.94301 10.4768 4.72993 10.5048 4.51817L12.4876 4.78002C12.5386 4.39386 12.4126 4.00532 12.1447 3.72256L10.6928 5.09807ZM6.79765 4.04143C6.81033 4.06711 6.89841 4.26782 7.0503 4.4313L8.5155 3.06998C8.57314 3.13202 8.60502 3.18661 8.61351 3.20166C8.6171 3.20803 8.61752 3.20921 8.61269 3.19968C8.60776 3.18997 8.60168 3.17769 8.59107 3.15618L6.79765 4.04143ZM8.18996 2.86452C8.16623 2.86105 8.15267 2.85906 8.14191 2.85737C8.13135 2.85571 8.13261 2.85574 8.13978 2.85719C8.15672 2.86063 8.21847 2.87413 8.29526 2.90983L7.45193 4.72334C7.65428 4.81743 7.87236 4.83935 7.9007 4.84349L8.18996 2.86452ZM7.0503 4.4313C7.16403 4.55371 7.30043 4.65289 7.45193 4.72334L8.29526 2.90983C8.37834 2.94847 8.45314 3.00286 8.5155 3.06998L7.0503 4.4313ZM7.31551 0.572034C7.25711 0.453723 7.18349 0.302327 7.10899 0.180644C7.04299 0.0728469 6.87666 -0.187301 6.55624 -0.340076L5.69549 1.46522C5.57494 1.40775 5.49643 1.33515 5.45443 1.28938C5.41564 1.24711 5.39871 1.21747 5.40328 1.22494C5.40684 1.23075 5.41767 1.24947 5.43999 1.29285C5.46199 1.33559 5.48737 1.38694 5.52209 1.45728L7.31551 0.572034ZM6.47858 1.45728C6.5133 1.38695 6.53868 1.33559 6.56068 1.29285C6.583 1.24947 6.59383 1.23075 6.59739 1.22494C6.60196 1.21747 6.58503 1.24711 6.54624 1.28938C6.50424 1.33515 6.42573 1.40775 6.30518 1.46522L5.44443 -0.340076C5.12401 -0.187301 4.95768 0.0728473 4.89168 0.180644C4.81718 0.302327 4.74356 0.453724 4.68516 0.572034L6.47858 1.45728ZM6.55624 -0.340076C6.2046 -0.507735 5.79607 -0.507735 5.44443 -0.340076L6.30518 1.46522C6.11235 1.55717 5.88832 1.55717 5.69549 1.46522L6.55624 -0.340076Z" fill="#212529" fill-opacity="0.6" mask="url(#path-1-inside-1_5_2339)"/>
</svg>
